<svg xmlns="http://www.w3.org/2000/svg" width="1400" height="840" viewBox="0 0 1400 840" role="img" aria-labelledby="title desc">
  <title id="title">Semantic objects, Analysis DSL actions, and typed results share one business language</title>
  <desc id="desc">The agent starts from a business question and uses semantic objects such as revenue, region, and completed_at directly. Actions including observe, compare, and attribute return MetricFrame, DeltaFrame, and AttributionFrame results. The runtime resolves tables, columns, filters, and joins instead of asking the agent to translate business meaning at every step.</desc>
  <defs>
    <linearGradient id="paper" x1="0" y1="0" x2="1" y2="1">
      <stop offset="0" stop-color="#f8f5ed"/>
      <stop offset="1" stop-color="#eaf4ef"/>
    </linearGradient>
    <linearGradient id="dark" x1="0" y1="0" x2="1" y2="1">
      <stop offset="0" stop-color="#123f34"/>
      <stop offset="1" stop-color="#092a23"/>
    </linearGradient>
    <pattern id="grid" width="32" height="32" patternUnits="userSpaceOnUse">
      <path d="M32 0H0V32" fill="none" stroke="#147d64" stroke-opacity=".045"/>
    </pattern>
    <filter id="shadow" x="-20%" y="-20%" width="140%" height="150%">
      <feDropShadow dx="0" dy="12" stdDeviation="16" flood-color="#0d4639" flood-opacity=".11"/>
    </filter>
    <marker id="arrow" viewBox="0 0 10 10" refX="9" refY="5" markerWidth="7" markerHeight="7" orient="auto">
      <path d="M0 0L10 5 0 10Z" fill="#239878"/>
    </marker>
    <style>
      text { font-family: Inter, "Helvetica Neue", Arial, sans-serif; }
      .mono { font-family: ui-monospace, "SFMono-Regular", Consolas, monospace; }
      .eyebrow { fill: #147d64; font-size: 15px; font-weight: 700; letter-spacing: 2px; }
      .heading { fill: #102a21; font-size: 34px; font-weight: 700; }
      .section { fill: #15372d; font-size: 22px; font-weight: 700; }
      .label { fill: #29473d; font-size: 16px; font-weight: 650; }
      .body { fill: #587067; font-size: 14px; }
      .tiny { fill: #71877e; font-size: 12px; }
      .white { fill: #f3fff9; }
      .mint { fill: #b9f4dd; }
    </style>
  </defs>

  <rect width="1400" height="840" rx="30" fill="url(#paper)"/>
  <rect width="1400" height="840" rx="30" fill="url(#grid)"/>

  <text x="70" y="68" class="eyebrow mono">MARIVO / SAME BUSINESS ABSTRACTION</text>
  <text x="70" y="114" class="heading">Analyze in one consistent business language</text>

  <rect x="70" y="148" width="1260" height="76" rx="20" fill="#dff4ea" stroke="#42b892" stroke-opacity=".38"/>
  <text x="98" y="178" class="eyebrow mono">BUSINESS QUESTION</text>
  <text x="98" y="207" class="label">Why was third-quarter revenue lower than a year ago?</text>
  <text x="1302" y="193" text-anchor="end" class="tiny">The agent chooses what to investigate next</text>

  <g filter="url(#shadow)">
    <rect x="70" y="270" width="350" height="340" rx="25" fill="#fffdf8" stroke="#1d6d59" stroke-opacity=".24"/>
  </g>
  <text x="98" y="310" class="eyebrow mono">SEMANTIC NOUNS</text>
  <text x="98" y="347" class="section">Business nouns from semantics</text>
  <rect x="98" y="378" width="294" height="57" rx="14" fill="#edf5f0"/>
  <text x="118" y="402" class="label mono">revenue</text>
  <text x="118" y="423" class="tiny">Net revenue from completed orders</text>
  <rect x="98" y="447" width="294" height="57" rx="14" fill="#edf5f0"/>
  <text x="118" y="471" class="label mono">region</text>
  <text x="118" y="492" class="tiny">Declared sales-region dimension</text>
  <rect x="98" y="516" width="294" height="57" rx="14" fill="#edf5f0"/>
  <text x="118" y="540" class="label mono">completed_at</text>
  <text x="118" y="561" class="tiny">Business timeline for recognition</text>

  <path d="M420 440H514" fill="none" stroke="#239878" stroke-width="2.4" marker-end="url(#arrow)"/>
  <text x="467" y="426" text-anchor="middle" class="tiny mono">ACT ON</text>

  <g filter="url(#shadow)">
    <rect x="514" y="246" width="372" height="388" rx="28" fill="url(#dark)"/>
  </g>
  <text x="544" y="288" class="eyebrow mono mint">ANALYSIS VERBS</text>
  <text x="544" y="328" class="section white">Analytical actions in the DSL</text>
  <rect x="544" y="360" width="312" height="62" rx="15" fill="#1b5849" stroke="#72d5b5" stroke-opacity=".25"/>
  <text x="566" y="386" class="label white mono">observe(revenue)</text>
  <text x="566" y="408" class="tiny" fill="#a9cfc2">Observe revenue over a clear scope</text>
  <path d="M700 422V445" stroke="#72d5b5" stroke-width="2" marker-end="url(#arrow)"/>
  <rect x="544" y="448" width="312" height="62" rx="15" fill="#1b5849" stroke="#72d5b5" stroke-opacity=".25"/>
  <text x="566" y="474" class="label white mono">compare(current, baseline)</text>
  <text x="566" y="496" class="tiny" fill="#a9cfc2">Measure change between scopes</text>
  <path d="M700 510V533" stroke="#72d5b5" stroke-width="2" marker-end="url(#arrow)"/>
  <rect x="544" y="536" width="312" height="62" rx="15" fill="#1b5849" stroke="#72d5b5" stroke-opacity=".25"/>
  <text x="566" y="562" class="label white mono">attribute(delta, region)</text>
  <text x="566" y="584" class="tiny" fill="#a9cfc2">Measure each region's contribution</text>

  <path d="M886 440H980" fill="none" stroke="#239878" stroke-width="2.4" marker-end="url(#arrow)"/>
  <text x="933" y="426" text-anchor="middle" class="tiny mono">RETURN</text>

  <g filter="url(#shadow)">
    <rect x="980" y="270" width="350" height="340" rx="25" fill="#e0f6ec" stroke="#42b892" stroke-opacity=".42"/>
  </g>
  <text x="1008" y="310" class="eyebrow mono">TYPED RESULTS</text>
  <text x="1008" y="347" class="section">Results retain business meaning</text>
  <rect x="1008" y="378" width="294" height="57" rx="14" fill="#ccebdd"/>
  <text x="1028" y="402" class="label mono">MetricFrame</text>
  <text x="1028" y="423" class="tiny">Revenue facts, scope, and axes</text>
  <rect x="1008" y="447" width="294" height="57" rx="14" fill="#ccebdd"/>
  <text x="1028" y="471" class="label mono">DeltaFrame</text>
  <text x="1028" y="492" class="tiny">Change facts and alignment</text>
  <rect x="1008" y="516" width="294" height="57" rx="14" fill="#ccebdd"/>
  <text x="1028" y="540" class="label mono">AttributionFrame</text>
  <text x="1028" y="561" class="tiny">Numerical contributions and limits</text>

  <text x="70" y="680" class="eyebrow mono">WHAT THE AGENT NO LONGER REBUILDS</text>
  <rect x="70" y="704" width="1260" height="80" rx="19" fill="#fffdf8" stroke="#1d6d59" stroke-opacity=".2"/>
  <text x="98" y="735" class="body mono">orders.net_amount · status filter · completed_at boundary · join sales_region</text>
  <text x="98" y="763" class="label">The runtime resolves tables, columns, filters, and joins from the semantic definition.</text>
  <rect x="998" y="723" width="304" height="42" rx="12" fill="#dff4ea"/>
  <text x="1150" y="749" text-anchor="middle" class="body">Less translation · memory · repair</text>
</svg>
