<svg xmlns="http://www.w3.org/2000/svg" viewBox="0 0 3000 1024" role="img" aria-labelledby="marivo-logo-title marivo-logo-description">
  <title id="marivo-logo-title">Marivo</title>
  <desc id="marivo-logo-description">The Marivo modular cube and uppercase wordmark.</desc>
  <defs>
    <linearGradient id="top-color" x1="0" y1="0" x2="1" y2="1"><stop offset="0" stop-color="#e0fff4"/><stop offset=".48" stop-color="#c1f1e1"/><stop offset="1" stop-color="#9bd8c4"/></linearGradient>
    <linearGradient id="front-color" x1="0" y1="0" x2="1" y2="1"><stop offset="0" stop-color="#22a47d"/><stop offset=".52" stop-color="#138462"/><stop offset="1" stop-color="#0c694f"/></linearGradient>
    <linearGradient id="right-color" x1="0" y1="0" x2="1" y2="1"><stop offset="0" stop-color="#82aa9c"/><stop offset=".5" stop-color="#679486"/><stop offset="1" stop-color="#477666"/></linearGradient>
    <clipPath id="front-stickers"><rect x="168" y="8" width="164" height="174" rx="18"/><rect x="348" y="8" width="164" height="174" rx="18"/><rect x="528" y="8" width="164" height="174" rx="18"/><rect x="168" y="198" width="164" height="174" rx="18"/><rect x="348" y="198" width="164" height="174" rx="18"/><rect x="528" y="198" width="164" height="174" rx="18"/><rect x="168" y="388" width="164" height="174" rx="18"/><rect x="348" y="388" width="164" height="174" rx="18"/><rect x="528" y="388" width="164" height="174" rx="18"/></clipPath>
    <g id="top-shadow-row" fill="#0a4134"><rect x="2" y="1" width="176" height="98" rx="22"/><rect x="182" y="1" width="176" height="98" rx="22"/><rect x="362" y="1" width="176" height="98" rx="22"/></g>
    <g id="top-face-row" fill="url(#top-color)" stroke="#0d4b3c" stroke-width="5"><rect x="8" y="8" width="164" height="84" rx="15"/><rect x="188" y="8" width="164" height="84" rx="15"/><rect x="368" y="8" width="164" height="84" rx="15"/></g>
    <g id="right-shadow-row" fill="#082f27"><rect x="1" y="1" width="78" height="188" rx="18"/><rect x="81" y="1" width="78" height="188" rx="18"/><rect x="161" y="1" width="78" height="188" rx="18"/></g>
    <g id="right-face-row" fill="url(#right-color)" stroke="#0c4538" stroke-width="5"><rect x="6" y="8" width="68" height="174" rx="13"/><rect x="86" y="8" width="68" height="174" rx="13"/><rect x="166" y="8" width="68" height="174" rx="13"/></g>
    <g id="front-shadow-row" fill="#082f27"><rect x="161" y="1" width="178" height="188" rx="26"/><rect x="341" y="1" width="178" height="188" rx="26"/><rect x="521" y="1" width="178" height="188" rx="26"/></g>
    <g id="front-face-row" fill="url(#front-color)" stroke="#0d4b3c" stroke-width="5"><rect x="168" y="8" width="164" height="174" rx="18"/><rect x="348" y="8" width="164" height="174" rx="18"/><rect x="528" y="8" width="164" height="174" rx="18"/></g>
    <g id="front-highlight-row" fill="none" stroke="#d9fff1" stroke-opacity=".16" stroke-width="3"><rect x="171" y="11" width="158" height="168" rx="15"/><rect x="351" y="11" width="158" height="168" rx="15"/><rect x="531" y="11" width="158" height="168" rx="15"/></g>
  </defs>
  <g transform="translate(42 58) scale(.88)">
  <path d="M359 152Q362 149 368 150L845 216Q850 217 850 222V728Q850 732 847 735L666 888Q662 891 657 890L172 824Q168 823 168 819V318Q168 315 171 313Z" fill="#09392e"/>
  <g transform="matrix(.926 .13 -.633 .533 355 150)">
    <use href="#top-shadow-row"/><use href="#top-shadow-row" y="100"/><use href="#top-shadow-row" y="200"/>
    <use href="#top-face-row"/><use href="#top-face-row" y="100"/><use href="#top-face-row" y="200"/>
  </g>
  <g transform="matrix(.792 -.667 0 .904 665 380)">
    <use href="#right-shadow-row"/><use href="#right-shadow-row" y="190"/><use href="#right-shadow-row" y="380"/>
    <use href="#right-face-row"/><use href="#right-face-row" y="190"/><use href="#right-face-row" y="380"/>
  </g>
  <g transform="matrix(.926 .13 0 .904 16.8 289.2)">
    <use href="#front-shadow-row"/><use href="#front-shadow-row" y="190"/><use href="#front-shadow-row" y="380"/>
    <use href="#front-face-row"/><use href="#front-face-row" y="190"/><use href="#front-face-row" y="380"/>
    <g clip-path="url(#front-stickers)" fill="#ffffee"><path d="M235 500V100h95v400Z"/><path d="M535 500V110h95v400Z"/><path d="M315 100 430 275 535 110v145L430 455 315 250Z"/></g>
    <use href="#front-highlight-row"/><use href="#front-highlight-row" y="190"/><use href="#front-highlight-row" y="380"/>
  </g>
  </g>
  <g fill="url(#front-color)">
    <path d="M950 704V320H1035L1120 515 1205 320H1290V704H1212V475L1150 620H1090L1028 475V704Z"/>
    <path fill-rule="evenodd" d="M1308 704 1450 320H1532L1674 704H1586L1554 614H1428L1396 704Zm144-160h78l-39-116Z"/>
    <path fill-rule="evenodd" d="M1715 704V320H1860Q1998 320 1998 447 1998 535 1914 566L2015 704H1918L1828 578H1795V704Zm80-196h60q63 0 63-59t-63-59h-60Z"/>
    <path d="M2058 320H2140V704H2058Z"/>
    <path d="M2180 320H2270L2320 572 2370 320H2460L2372 704H2268Z"/>
    <path fill-rule="evenodd" d="M2697 310Q2898 310 2898 512T2697 714Q2496 714 2496 512T2697 310Zm0 80Q2580 390 2580 512T2697 634Q2814 634 2814 512T2697 390Z"/>
  </g>
</svg>
